<svg width="195" height="28" viewBox="0 0 195 28" fill="none" xmlns="http://www.w3.org/2000/svg">
<path d="M10.96 9.04C12.56 3.76 16.64 -1.90735e-06 21.44 -1.90735e-06V2.8C17.88 2.8 14.88 5.76 13.64 9.88L10.96 19C9.36 24.28 5.24 28 0.48 28V25.24C4 25.24 7.04 22.28 8.28 18.16L10.96 9.04ZM29.2294 28L26.9894 18.2H23.1094L20.8294 28H18.0694L25.0294 -1.90735e-06L32.0294 28H29.2294ZM23.7494 15.44H26.3494L25.0694 9.84L23.7494 15.44ZM50.1356 0.0399976L57.1356 28H54.2956L49.8956 10.24L44.5356 27.92L39.2156 10.24L34.8156 28H31.9756L38.9756 0.0399976L44.5356 18.12L50.1356 0.0399976ZM68.6853 -1.90735e-06L60.2853 28H57.5253L61.6853 14L57.5253 -1.90735e-06H60.3253L63.1253 9.84L65.8853 -1.90735e-06H68.6853ZM76.5 12.08L82.3 28H79.5L73.86 12.6H72.46V28H69.7V-1.90735e-06H74.02C76.14 0.0799994 78.02 1.16 79.14 2.8C79.78 3.84 80.18 5.04 80.18 6.32C80.18 7.6 79.82 8.8 79.14 9.8C78.5 10.8 77.58 11.56 76.5 12.08ZM73.98 9.8C75.86 9.76 77.38 8.2 77.38 6.32C77.38 4.52 76.02 3.04 74.3 2.8C74.14 2.8 74.02 2.8 73.86 2.8H72.46V9.8H73.86C73.9 9.8 73.94 9.8 73.98 9.8ZM93.7997 28L91.5597 18.2H87.6797L85.3997 28H82.6397L89.5997 -1.90735e-06L96.5997 28H93.7997ZM88.3197 15.44H90.9197L89.6397 9.84L88.3197 15.44ZM104.749 0.0399976H107.509L111.709 18.24L115.909 0.0399976H118.749L111.709 28L104.749 0.0399976ZM119.895 -1.90735e-06H122.655V28H119.895V-1.90735e-06ZM135.331 -1.90735e-06V2.8H131.131V28H128.331V2.8H124.171V-1.90735e-06H135.331ZM147.895 -1.90735e-06C155.615 -1.90735e-06 161.895 6.28 161.895 14C161.895 21.76 155.615 28 147.895 28C140.135 28 133.895 21.76 133.895 14C133.895 6.28 140.135 -1.90735e-06 147.895 -1.90735e-06ZM147.895 25.2C154.055 25.2 159.055 20.2 159.055 14C159.055 7.84 154.055 2.84 147.895 2.84C141.695 2.84 136.695 7.84 136.695 14C136.695 20.2 141.695 25.2 147.895 25.2ZM170.094 12.08L175.894 28H173.094L167.454 12.6H166.054V28H163.294V-1.90735e-06H167.614C169.734 0.0799994 171.614 1.16 172.734 2.8C173.374 3.84 173.774 5.04 173.774 6.32C173.774 7.6 173.414 8.8 172.734 9.8C172.094 10.8 171.174 11.56 170.094 12.08ZM167.574 9.8C169.454 9.76 170.974 8.2 170.974 6.32C170.974 4.52 169.614 3.04 167.894 2.8C167.734 2.8 167.614 2.8 167.454 2.8H166.054V9.8H167.454C167.494 9.8 167.534 9.8 167.574 9.8ZM177.083 -1.90735e-06H179.843V28H177.083V-1.90735e-06ZM192.198 28L189.958 18.2H186.078L183.798 28H181.038L187.998 -1.90735e-06L194.998 28H192.198ZM186.718 15.44H189.318L188.038 9.84L186.718 15.44Z" fill="#3E3C3C"/>
</svg>
