<svg width="171" height="25" viewBox="0 0 171 25" fill="none" xmlns="http://www.w3.org/2000/svg">
<path d="M9.715 8.41L7.37 16.39C6.285 19.995 3.625 22.585 0.545 22.585V25C4.71 25 8.315 21.745 9.715 17.125L12.06 9.145C13.145 5.54 15.77 2.95 18.885 2.95V0.499998C14.685 0.499998 11.115 3.79 9.715 8.41ZM25.7007 25H28.1507L22.0257 0.499998L15.9357 25H18.3507L20.3457 16.425H23.7407L25.7007 25ZM20.9057 14.01L22.0607 9.11L23.1807 14.01H20.9057ZM43.9937 0.534998L39.0937 16.355L34.2287 0.534998L28.1037 25H30.5887L34.4387 9.46L39.0937 24.93L43.7837 9.46L47.6337 25H50.1187L43.9937 0.534998ZM60.2246 0.499998H57.7746L55.3596 9.11L52.9096 0.499998H50.4596L54.0996 12.75L50.4596 25H52.8746L60.2246 0.499998ZM67.0625 11.07C68.0075 10.615 68.8125 9.95 69.3725 9.075C69.9675 8.2 70.2825 7.15 70.2825 6.03C70.2825 4.91 69.9325 3.86 69.3725 2.95C68.3925 1.515 66.7475 0.57 64.8925 0.499998H61.1125V25H63.5275V11.525H64.7525L69.6875 25H72.1375L67.0625 11.07ZM64.8575 9.075C64.8225 9.075 64.7875 9.075 64.7525 9.075H63.5275V2.95H64.7525C64.8925 2.95 64.9975 2.95 65.1375 2.95C66.6425 3.16 67.8325 4.455 67.8325 6.03C67.8325 7.675 66.5025 9.04 64.8575 9.075ZM82.1997 25H84.6497L78.5247 0.499998L72.4347 25H74.8497L76.8447 16.425H80.2397L82.1997 25ZM77.4047 14.01L78.5597 9.11L79.6797 14.01H77.4047ZM91.7804 0.534998L97.8704 25L104.03 0.534998H101.545L97.8704 16.46L94.1954 0.534998H91.7804ZM105.033 0.499998V25H107.448V0.499998H105.033ZM118.539 0.499998H108.774V2.95H112.414V25H114.864V2.95H118.539V0.499998ZM129.533 0.499998C122.743 0.499998 117.283 5.995 117.283 12.75C117.283 19.54 122.743 25 129.533 25C136.288 25 141.783 19.54 141.783 12.75C141.783 5.995 136.288 0.499998 129.533 0.499998ZM129.533 22.55C124.108 22.55 119.733 18.175 119.733 12.75C119.733 7.36 124.108 2.985 129.533 2.985C134.923 2.985 139.298 7.36 139.298 12.75C139.298 18.175 134.923 22.55 129.533 22.55ZM148.957 11.07C149.902 10.615 150.707 9.95 151.267 9.075C151.862 8.2 152.177 7.15 152.177 6.03C152.177 4.91 151.827 3.86 151.267 2.95C150.287 1.515 148.642 0.57 146.787 0.499998H143.007V25H145.422V11.525H146.647L151.582 25H154.032L148.957 11.07ZM146.752 9.075C146.717 9.075 146.682 9.075 146.647 9.075H145.422V2.95H146.647C146.787 2.95 146.892 2.95 147.032 2.95C148.537 3.16 149.727 4.455 149.727 6.03C149.727 7.675 148.397 9.04 146.752 9.075ZM155.072 0.499998V25H157.487V0.499998H155.072ZM168.298 25H170.748L164.623 0.499998L158.533 25H160.948L162.943 16.425H166.338L168.298 25ZM163.503 14.01L164.658 9.11L165.778 14.01H163.503Z" fill="#B82625"/>
</svg>
