<svg width="171" height="25" viewBox="0 0 171 25" fill="none" xmlns="http://www.w3.org/2000/svg">
<path d="M9.715 8.41C11.115 3.79 14.685 0.499998 18.885 0.499998V2.95C15.77 2.95 13.145 5.54 12.06 9.145L9.715 17.125C8.315 21.745 4.71 25 0.545 25V22.585C3.625 22.585 6.285 19.995 7.37 16.39L9.715 8.41ZM25.7007 25L23.7407 16.425H20.3457L18.3507 25H15.9357L22.0257 0.499998L28.1507 25H25.7007ZM20.9057 14.01H23.1807L22.0607 9.11L20.9057 14.01ZM43.9937 0.534998L50.1187 25H47.6337L43.7837 9.46L39.0937 24.93L34.4387 9.46L30.5887 25H28.1037L34.2287 0.534998L39.0937 16.355L43.9937 0.534998ZM60.2246 0.499998L52.8746 25H50.4596L54.0996 12.75L50.4596 0.499998H52.9096L55.3596 9.11L57.7746 0.499998H60.2246ZM67.0625 11.07L72.1375 25H69.6875L64.7525 11.525H63.5275V25H61.1125V0.499998H64.8925C66.7475 0.57 68.3925 1.515 69.3725 2.95C69.9325 3.86 70.2825 4.91 70.2825 6.03C70.2825 7.15 69.9675 8.2 69.3725 9.075C68.8125 9.95 68.0075 10.615 67.0625 11.07ZM64.8575 9.075C66.5025 9.04 67.8325 7.675 67.8325 6.03C67.8325 4.455 66.6425 3.16 65.1375 2.95C64.9975 2.95 64.8925 2.95 64.7525 2.95H63.5275V9.075H64.7525C64.7875 9.075 64.8225 9.075 64.8575 9.075ZM82.1997 25L80.2397 16.425H76.8447L74.8497 25H72.4347L78.5247 0.499998L84.6497 25H82.1997ZM77.4047 14.01H79.6797L78.5597 9.11L77.4047 14.01ZM91.7804 0.534998H94.1954L97.8704 16.46L101.545 0.534998H104.03L97.8704 25L91.7804 0.534998ZM105.033 0.499998H107.448V25H105.033V0.499998ZM118.539 0.499998V2.95H114.864V25H112.414V2.95H108.774V0.499998H118.539ZM129.533 0.499998C136.288 0.499998 141.783 5.995 141.783 12.75C141.783 19.54 136.288 25 129.533 25C122.743 25 117.283 19.54 117.283 12.75C117.283 5.995 122.743 0.499998 129.533 0.499998ZM129.533 22.55C134.923 22.55 139.298 18.175 139.298 12.75C139.298 7.36 134.923 2.985 129.533 2.985C124.108 2.985 119.733 7.36 119.733 12.75C119.733 18.175 124.108 22.55 129.533 22.55ZM148.957 11.07L154.032 25H151.582L146.647 11.525H145.422V25H143.007V0.499998H146.787C148.642 0.57 150.287 1.515 151.267 2.95C151.827 3.86 152.177 4.91 152.177 6.03C152.177 7.15 151.862 8.2 151.267 9.075C150.707 9.95 149.902 10.615 148.957 11.07ZM146.752 9.075C148.397 9.04 149.727 7.675 149.727 6.03C149.727 4.455 148.537 3.16 147.032 2.95C146.892 2.95 146.787 2.95 146.647 2.95H145.422V9.075H146.647C146.682 9.075 146.717 9.075 146.752 9.075ZM155.072 0.499998H157.487V25H155.072V0.499998ZM168.298 25L166.338 16.425H162.943L160.948 25H158.533L164.623 0.499998L170.748 25H168.298ZM163.503 14.01H165.778L164.658 9.11L163.503 14.01Z" fill="#F8DCD8"/>
</svg>
